<svg width="22" height="22" viewBox="0 0 22 22" fill="none" xmlns="http://www.w3.org/2000/svg">
<rect width="22" height="22" rx="11" fill="#FD6600"/>
<path d="M6 7C6 6.44772 5.55228 6 5 6C4.44772 6 4 6.44772 4 7V15C4 15.5523 4.44772 16 5 16C5.55228 16 6 15.5523 6 15V13H17V15C17 15.5523 17.4477 16 18 16C18.5523 16 19 15.5523 19 15V11H6V7Z" fill="white"/>
<path d="M9 9C9 9.55228 8.55228 10 8 10C7.44772 10 7 9.55228 7 9C7 8.44772 7.44772 8 8 8C8.55228 8 9 8.44772 9 9Z" fill="white"/>
<path d="M10 9C10 8.44772 10.4477 8 11 8H17C17.5523 8 18 8.44772 18 9C18 9.55228 17.5523 10 17 10H11C10.4477 10 10 9.55228 10 9Z" fill="white"/>
</svg>
