<svg width="22" height="22" viewBox="0 0 22 22" fill="none" xmlns="http://www.w3.org/2000/svg">
<rect width="22" height="22" rx="11" fill="#FF9900"/>
<path fill-rule="evenodd" clip-rule="evenodd" d="M6.0352 7.21342C5.87692 6.68431 5.31967 6.38368 4.79055 6.54197C4.26143 6.70025 3.96081 7.2575 4.1191 7.78662L4.78123 10H4C3.44772 10 3 10.4477 3 11C3 11.5523 3.44772 12 4 12H5.37952L6.8114 16.7866C6.9352 17.2004 7.31069 17.488 7.74247 17.4997C8.17425 17.5113 8.56471 17.2444 8.71065 16.8379L10.4473 12H11.5531L13.2898 16.8379C13.4357 17.2444 13.8262 17.5113 14.258 17.4997C14.6898 17.488 15.0653 17.2004 15.189 16.7866L16.6209 12H18C18.5523 12 19 11.5523 19 11C19 10.4477 18.5523 10 18 10H17.2192L17.8814 7.78662C18.0396 7.2575 17.739 6.70025 17.2099 6.54197C16.6808 6.38368 16.1235 6.68431 15.9653 7.21342L15.1317 10H12.9601L11.9414 7.16215C11.7988 6.76495 11.4222 6.50002 11.0002 6.50002C10.5782 6.50002 10.2016 6.76495 10.059 7.16215L9.04031 10H6.8688L6.0352 7.21342ZM7.46709 12L7.85585 13.2996L8.32236 12H7.46709ZM13.6781 12L14.1446 13.2996L14.5334 12H13.6781Z" fill="#F5F5F5"/>
</svg>
