<svg width="22" height="22" viewBox="0 0 22 22" fill="none" xmlns="http://www.w3.org/2000/svg">
<rect width="22" height="22" rx="11" fill="#C0C0C0"/>
<path fill-rule="evenodd" clip-rule="evenodd" d="M5 6C5 5.44771 5.44772 5 6 5H16C16.5523 5 17 5.44772 17 6V15C17 15.5523 16.5523 16 16 16V18H14V16H8V18H6V16C5.44772 16 5 15.5523 5 15V6ZM15 7V10H7V7H15ZM7 13C7 13.5523 7.44772 14 8 14C8.55228 14 9 13.5523 9 13C9 12.4477 8.55228 12 8 12C7.44772 12 7 12.4477 7 13ZM13 13C13 13.5523 13.4477 14 14 14C14.5523 14 15 13.5523 15 13C15 12.4477 14.5523 12 14 12C13.4477 12 13 12.4477 13 13Z" fill="white"/>
</svg>
