<svg width="22" height="22" viewBox="0 0 22 22" fill="none" xmlns="http://www.w3.org/2000/svg">
<rect width="22" height="22" rx="11" fill="#C0C0C0"/>
<path fill-rule="evenodd" clip-rule="evenodd" d="M5 7V15H8.004L7.29334 16.9987C7.15457 17.389 7.35846 17.8179 7.74874 17.9567C8.13902 18.0954 8.5679 17.8915 8.70666 17.5013L9.596 15H11.4373L12.2904 17.4928C12.4245 17.8847 12.8509 18.0937 13.2428 17.9596C13.6347 17.8255 13.8437 17.3991 13.7096 17.0072L13.0227 15H16V12.3597C16 12.5116 16.069 12.6552 16.1877 12.7501L18.1877 14.3501C18.515 14.612 19 14.3789 19 13.9597V8.04031C19 7.62106 18.515 7.38797 18.1877 7.64988L16.1877 9.24988C16.069 9.34476 16 9.48842 16 9.64031V7H5ZM7 13V9H14V13H7Z" fill="white"/>
</svg>
