<svg width="22" height="22" viewBox="0 0 22 22" fill="none" xmlns="http://www.w3.org/2000/svg">
<rect width="22" height="22" rx="11" fill="#C0C0C0"/>
<path fill-rule="evenodd" clip-rule="evenodd" d="M16 4C16 3.44772 15.5523 3 15 3H7C6.44772 3 6 3.44772 6 4V17H5C4.72386 17 4.5 17.2239 4.5 17.5C4.5 17.7761 4.72386 18 5 18H17C17.2761 18 17.5 17.7761 17.5 17.5C17.5 17.2239 17.2761 17 17 17H16V4ZM10 9V10C10 10.5523 10.4477 11 11 11C11.5523 11 12 10.5523 12 10V9H13C13.5523 9 14 8.55228 14 8C14 7.44772 13.5523 7 13 7H12V6C12 5.44772 11.5523 5 11 5C10.4477 5 10 5.44772 10 6V7H9C8.44772 7 8 7.44772 8 8C8 8.55228 8.44772 9 9 9H10ZM13 14V17H9V14C9 13.4477 9.44772 13 10 13H12C12.5523 13 13 13.4477 13 14Z" fill="white"/>
</svg>
