<svg width="22" height="22" viewBox="0 0 22 22" fill="none" xmlns="http://www.w3.org/2000/svg">
<rect width="22" height="22" rx="11" fill="#C0C0C0"/>
<path d="M6 5C6 4.44772 6.44772 4 7 4H15C15.5523 4 16 4.44772 16 5C16 5.55228 15.5523 6 15 6H7C6.44772 6 6 5.55228 6 5Z" fill="white"/>
<path fill-rule="evenodd" clip-rule="evenodd" d="M4 8C4 7.44772 4.44772 7 5 7H17C17.5523 7 18 7.44772 18 8C18 8.55228 17.5523 9 17 9V15C17.5523 15 18 15.4477 18 16C18 16.5523 17.5523 17 17 17H5C4.44772 17 4 16.5523 4 16C4 15.4477 4.44772 15 5 15V9C4.44772 9 4 8.55228 4 8ZM15 15V9H13V15H15ZM12 15H10L10 9H12L12 15ZM9 15L9 9H7L7 15H9Z" fill="white"/>
</svg>
