<svg width="22" height="22" viewBox="0 0 22 22" fill="none" xmlns="http://www.w3.org/2000/svg">
<rect width="22" height="22" rx="11" fill="#FF7D95"/>
<path fill-rule="evenodd" clip-rule="evenodd" d="M6.5 8V7C6.5 5.34315 7.84315 4 9.5 4H12C13.6569 4 15 5.34315 15 7V8H18C18.5523 8 19 8.44772 19 9C19 9.55228 18.5523 10 18 10H16.8673L16.0513 15.7121C15.9457 16.4511 15.3128 17 14.5664 17H7.43365C6.68717 17 6.05429 16.4511 5.94872 15.7121L5.1327 10H4C3.44772 10 3 9.55228 3 9C3 8.44772 3.44772 8 4 8H6.5ZM8.5 7C8.5 6.44772 8.94772 6 9.5 6H12C12.5523 6 13 6.44772 13 7V8H8.5V7ZM10.0851 10H11.9149L11.5017 14.9585C11.5006 14.9724 11.5 14.9863 11.5 15H10.5C10.5 14.9863 10.4994 14.9724 10.4983 14.9585L10.0851 10ZM12.5017 15L12.9184 10H14.847L14.1327 15H12.5017ZM9.0816 10H7.15301L7.86729 15H9.49827L9.0816 10Z" fill="white"/>
</svg>
