<svg width="22" height="22" viewBox="0 0 22 22" fill="none" xmlns="http://www.w3.org/2000/svg">
<rect width="22" height="22" rx="11" fill="#C0C0C0"/>
<path fill-rule="evenodd" clip-rule="evenodd" d="M8.47427 2.14935C8.76909 1.96714 9.13723 1.95058 9.44721 2.10557L13.4472 4.10557C13.862 4.31298 14.0798 4.77838 13.9732 5.22975C13.8667 5.68112 13.4638 6 13 6H10V8H18V18H4V8H8V3C8 2.65342 8.17945 2.33156 8.47427 2.14935ZM8 10H6V12H8V10ZM8 14H6V16H8V14ZM10 16V14H12V16H10ZM14 16H16V14H14V16ZM14 12H16V10H14V12ZM12 10H10V12H12V10Z" fill="white"/>
</svg>
