<svg width="22" height="22" viewBox="0 0 22 22" fill="none" xmlns="http://www.w3.org/2000/svg">
<rect width="22" height="22" rx="11" fill="#7000FF"/>
<path fill-rule="evenodd" clip-rule="evenodd" d="M6.00004 5C5.44775 5 5.00004 5.44771 5.00004 6V15C5.00004 15.5523 5.44775 16 6.00004 16H6.29293L1.64648 20.6464L2.35359 21.3536L4.70714 19H17.2929L19.6465 21.3536L20.3536 20.6464L15.7071 16H16C16.5523 16 17 15.5523 17 15V6C17 5.44772 16.5523 5 16 5H6.00004ZM14.2929 16H7.70714L5.70714 18H16.2929L14.2929 16ZM15 10V7H7.00004V10H15ZM8.00004 14C7.44775 14 7.00004 13.5523 7.00004 13C7.00004 12.4477 7.44775 12 8.00004 12C8.55232 12 9.00004 12.4477 9.00004 13C9.00004 13.5523 8.55232 14 8.00004 14ZM14 14C13.4478 14 13 13.5523 13 13C13 12.4477 13.4478 12 14 12C14.5523 12 15 12.4477 15 13C15 13.5523 14.5523 14 14 14Z" fill="white"/>
</svg>
