<svg width="24" height="24" viewBox="0 0 24 24" fill="none" xmlns="http://www.w3.org/2000/svg">
<path d="M5.6376 18.4274L11.7827 21.5L17.9278 18.4274L20.2827 19.6364L11.7827 24L3.28271 19.6364L5.6376 18.4274Z" fill="#CCCCCC"/>
<path d="M11.7827 12L3.28271 16.25L11.7827 20.5L20.2827 16.25L11.7827 12Z" fill="#CCCCCC"/>
<path fill-rule="evenodd" clip-rule="evenodd" d="M6.28271 5.79375C6.28271 2.86706 8.742 0.5 11.7827 0.5C14.8234 0.5 17.2827 2.86706 17.2827 5.79375C17.2827 9.76406 11.7827 15.625 11.7827 15.625C11.7827 15.625 6.28271 9.76406 6.28271 5.79375ZM11.7827 8.5C13.1634 8.5 14.2827 7.38071 14.2827 6C14.2827 4.61929 13.1634 3.5 11.7827 3.5C10.402 3.5 9.28271 4.61929 9.28271 6C9.28271 7.38071 10.402 8.5 11.7827 8.5Z" fill="#3C6AFF"/>
</svg>
