<svg width="24" height="24" viewBox="0 0 24 24" fill="none" xmlns="http://www.w3.org/2000/svg">
<path d="M5.63747 18.4274L11.7826 21.5L17.9277 18.4274L20.2826 19.6364L11.7826 24L3.28259 19.6364L5.63747 18.4274Z" fill="#ADC0FF"/>
<path d="M11.7826 12L3.28259 16.25L11.7826 20.5L20.2826 16.25L11.7826 12Z" fill="#ADC0FF"/>
<path fill-rule="evenodd" clip-rule="evenodd" d="M6.28259 5.79375C6.28259 2.86706 8.74188 0.5 11.7826 0.5C14.8233 0.5 17.2826 2.86706 17.2826 5.79375C17.2826 9.76406 11.7826 15.625 11.7826 15.625C11.7826 15.625 6.28259 9.76406 6.28259 5.79375ZM11.7826 8.5C13.1633 8.5 14.2826 7.38071 14.2826 6C14.2826 4.61929 13.1633 3.5 11.7826 3.5C10.4019 3.5 9.28259 4.61929 9.28259 6C9.28259 7.38071 10.4019 8.5 11.7826 8.5Z" fill="white"/>
</svg>
