<svg width="24" height="24" viewBox="0 0 24 24" fill="none" xmlns="http://www.w3.org/2000/svg">
<path d="M15.7081 8.16838C15.7081 6.69468 16.9698 5.5 18.5262 5.5C20.0827 5.5 21.3444 6.69468 21.3444 8.16838C21.3444 9.64209 20.0827 10.8368 18.5262 10.8368C16.9698 10.8368 15.7081 9.64209 15.7081 8.16838Z" fill="#DDDDDD"/>
<path d="M14.9436 14.0781C15.3695 12.5546 16.8253 11.4936 18.4897 11.4936C20.149 11.4936 21.6017 12.5483 22.0322 14.0656L23.4265 18.9795C23.7872 20.2508 22.7755 21.5 21.3852 21.5H15.6148C14.2277 21.5 13.2166 20.2563 13.5715 18.9866L14.9436 14.0781Z" fill="#DDDDDD"/>
<path d="M2.48727 8.16838C2.48727 6.69468 3.62283 5.5 5.02362 5.5C6.42441 5.5 7.55998 6.69468 7.55998 8.16838C7.55998 9.64209 6.42441 10.8368 5.02362 10.8368C3.62283 10.8368 2.48727 9.64209 2.48727 8.16838Z" fill="#DDDDDD"/>
<path d="M1.79927 14.0781C2.18256 12.5546 3.49277 11.4936 4.99072 11.4936C6.48412 11.4936 7.79154 12.5483 8.17901 14.0656L9.43381 18.9795C9.75846 20.2508 8.84799 21.5 7.59668 21.5H2.40329C1.15491 21.5 0.244926 20.2563 0.564351 18.9866L1.79927 14.0781Z" fill="#DDDDDD"/>
<path d="M8.3705 5.00225C8.3705 3.06801 10.0108 1.5 12.0341 1.5C14.0575 1.5 15.6977 3.06801 15.6977 5.00225C15.6977 6.93649 14.0575 8.50451 12.0341 8.50451C10.0108 8.50451 8.3705 6.93649 8.3705 5.00225Z" fill="#EEEEEE"/>
<path d="M7.37673 12.7587C7.93036 10.7592 9.82288 9.36655 11.9866 9.36655C14.1437 9.36655 16.0322 10.7509 16.5919 12.7424L18.4044 19.1918C18.8733 20.8605 17.5582 22.5 15.7508 22.5H8.2492C6.44598 22.5 5.13156 20.8676 5.59295 19.2012L7.37673 12.7587Z" fill="#EEEEEE"/>
</svg>
