<svg width="11" height="35" viewBox="0 0 11 35" fill="none" xmlns="http://www.w3.org/2000/svg">
<mask id="mask0_322_7641" style="mask-type:alpha" maskUnits="userSpaceOnUse" x="0" y="0" width="11" height="35">
<path d="M9.10548 31.5C9.10548 33.433 7.49125 35 5.5 35C3.50875 35 1.89452 33.433 1.89452 31.5C1.89452 29.567 3.50875 28 5.5 28C7.49125 28 9.10548 29.567 9.10548 31.5Z" fill="#D9D9D9"/>
<path d="M0.0525443 6.06756C-0.403242 2.85978 2.16426 0 5.5 0C8.83574 0 11.4032 2.85977 10.9475 6.06756L8.57359 22.7746C8.36183 24.2649 7.04975 25.375 5.5 25.375C3.95025 25.375 2.63817 24.2649 2.42641 22.7746L0.0525443 6.06756Z" fill="#D9D9D9"/>
</mask>
<g mask="url(#mask0_322_7641)">
<rect x="17" y="30" width="23" height="33" transform="rotate(-180 17 30)" fill="#D7E0FF"/>
<path d="M13.8912 11.8657C16.1584 11.3079 18.1422 12.563 18.8507 13.2603C19.323 9.7738 18.8507 0.47625 14.8359 -2.77788C10.8211 -6.032 -4.58078 -2.313 -6.41906 2.80062C-8.25734 7.91425 -5.47439 21.3957 -1.69574 21.8605C2.08292 22.3254 3.97224 21.6281 6.57007 19.7686C9.16789 17.9091 11.0572 12.563 13.8912 11.8657Z" fill="#B7C8FF"/>
<path d="M3.68487 12.5811C-1.20888 17.4681 -3.22853 17.2354 -4.23835 16.77L-4.23835 16.3045C-5.32586 14.5204 -7.0348 9.69553 -5.17051 4.66896C-2.84015 -1.61425 3.68488 -4.40679 10.676 -2.31239C16.2688 -0.636862 17.201 6.1428 16.9679 9.3232C11.6081 9.78862 8.57863 7.69419 3.68487 12.5811Z" fill="#8DA8FF"/>
<path d="M11.6188 6.07575C15.3367 6.44214 16.7554 5.92308 17 5.61776L17 -4L-5.74767 -4C-5.74767 -4 -6.45405 15.5331 -5.50307 14.9888C-3.28469 13.7193 -1.60869 11.7318 -0.1219 9.96866C3.54708 5.61776 6.97146 5.61776 11.6188 6.07575Z" fill="#2958EF"/>
<path d="M11.8528 37.0757C15.409 37.4421 16.766 36.9231 17 36.6178L17 27L-4.75864 27C-4.75864 27 -5.43431 46.5331 -4.52468 45.9888C-2.40274 44.7193 -0.799612 42.7318 0.622532 40.9687C4.13199 36.6178 7.40748 36.6178 11.8528 37.0757Z" fill="#2958EF"/>
</g>
</svg>
