<svg width="45" height="50" viewBox="0 0 45 50" fill="none" xmlns="http://www.w3.org/2000/svg">
<path d="M4.61242e-05 17.8636C4.61242e-05 17.0057 0.901329 16.3103 2.01312 16.3103C3.12491 16.3103 3.96172 17.0057 3.96172 17.8636V29H4.61242e-05V17.8636Z" fill="#3C6AFF"/>
<path d="M10 7.05336C10 6.19546 10.9013 5.5 12.0131 5.5C13.1249 5.5 14 6.19546 14 7.05336V29H10V7.05336Z" fill="#3C6AFF"/>
<path d="M20 9.15937C20 8.30147 20.9013 7.60601 22.0131 7.60601C23.1249 7.60601 24 8.30147 24 9.15937V29H20V9.15937Z" fill="#3C6AFF"/>
<path d="M30 1.55336C30 0.695462 30.9013 0 32.0131 0C33.1249 0 34 0.695462 34 1.55336V29H30V1.55336Z" fill="#3C6AFF"/>
<path d="M40 9.36363C40 8.50573 40.8882 7.81028 42 7.81028C43.1118 7.81028 43.9869 8.50573 43.9869 9.36363V29H40V9.36363Z" fill="#3C6AFF"/>
<path d="M43.9869 39.9466C43.9869 40.8045 43.1118 41.5 42 41.5C40.8882 41.5 40 40.8045 40 39.9466L40 32H43.9869V39.9466Z" fill="#3C6AFF" fill-opacity="0.5"/>
<path d="M34 43.0099C34 43.8678 33.1249 44.5632 32.0131 44.5632C30.9013 44.5632 30 43.8678 30 43.0099V32H34V43.0099Z" fill="#3C6AFF" fill-opacity="0.5"/>
<path d="M24 48.4466C24 49.3045 23.1249 50 22.0131 50C20.9013 50 20 49.3045 20 48.4466L20 32H24L24 48.4466Z" fill="#3C6AFF" fill-opacity="0.5"/>
<path d="M14 45.4032C14 46.2611 13.1249 46.9565 12.0131 46.9565C10.9013 46.9565 10 46.2611 10 45.4032L10 32H14L14 45.4032Z" fill="#3C6AFF" fill-opacity="0.5"/>
<path d="M3.96172 41.4565C3.96172 42.3144 3.12491 43.0099 2.01312 43.0099C0.90133 43.0099 4.82033e-05 42.3144 4.81061e-05 41.4565L0 32H3.96167L3.96172 41.4565Z" fill="#3C6AFF" fill-opacity="0.5"/>
</svg>
