<svg width="38" height="35" viewBox="0 0 38 35" fill="none" xmlns="http://www.w3.org/2000/svg">
<path d="M30.5 27C30.5 27.2761 30.7239 27.5 31 27.5C31.2761 27.5 31.5 27.2761 31.5 27H30.5ZM24.75 0C24.4739 0 24.25 0.223858 24.25 0.5C24.25 0.776142 24.4739 1 24.75 1V0ZM24.75 1C25.0261 1 25.25 0.776142 25.25 0.5C25.25 0.223858 25.0261 0 24.75 0V1ZM12.25 33.5C11.9739 33.5 11.75 33.7239 11.75 34C11.75 34.2761 11.9739 34.5 12.25 34.5V33.5ZM5.5 3.55208C5.5 3.82823 5.72386 4.05208 6 4.05208C6.27614 4.05208 6.5 3.82823 6.5 3.55208H5.5ZM6.5 5.65625C6.5 5.38011 6.27614 5.15625 6 5.15625C5.72386 5.15625 5.5 5.38011 5.5 5.65625H6.5ZM5.5 7.76042C5.5 8.03656 5.72386 8.26042 6 8.26042C6.27614 8.26042 6.5 8.03656 6.5 7.76042H5.5ZM6.5 9.86458C6.5 9.58844 6.27614 9.36458 6 9.36458C5.72386 9.36458 5.5 9.58844 5.5 9.86458H6.5ZM5.5 11.9688C5.5 12.2449 5.72386 12.4688 6 12.4688C6.27614 12.4688 6.5 12.2449 6.5 11.9688H5.5ZM6.5 14.0729C6.5 13.7968 6.27614 13.5729 6 13.5729C5.72386 13.5729 5.5 13.7968 5.5 14.0729H6.5ZM5.5 16.1771C5.5 16.4532 5.72386 16.6771 6 16.6771C6.27614 16.6771 6.5 16.4532 6.5 16.1771H5.5ZM6.5 18.2813C6.5 18.0051 6.27614 17.7813 6 17.7813C5.72386 17.7813 5.5 18.0051 5.5 18.2813H6.5ZM5.5 20.3854C5.5 20.6616 5.72386 20.8854 6 20.8854C6.27614 20.8854 6.5 20.6616 6.5 20.3854H5.5ZM6.5 22.4896C6.5 22.2134 6.27614 21.9896 6 21.9896C5.72386 21.9896 5.5 22.2134 5.5 22.4896H6.5ZM5.5 24.5937C5.5 24.8699 5.72386 25.0937 6 25.0937C6.27614 25.0937 6.5 24.8699 6.5 24.5937H5.5ZM6.5 26.6979C6.5 26.4218 6.27614 26.1979 6 26.1979C5.72386 26.1979 5.5 26.4218 5.5 26.6979H6.5ZM5.62847 29.0668C5.68206 29.3377 5.9451 29.5138 6.216 29.4603C6.48689 29.4067 6.66305 29.1436 6.60946 28.8727L5.62847 29.0668ZM7.4682 30.9444C7.31458 30.715 7.00402 30.6535 6.77456 30.8071C6.54509 30.9607 6.48361 31.2713 6.63723 31.5008L7.4682 30.9444ZM8.49924 33.3628C8.72871 33.5164 9.03926 33.4549 9.19289 33.2254C9.34651 32.996 9.28503 32.6854 9.05556 32.5318L8.49924 33.3628ZM11.1273 33.3905C10.8564 33.337 10.5933 33.5131 10.5397 33.784C10.4862 34.0549 10.6623 34.3179 10.9332 34.3715L11.1273 33.3905ZM13.5668 34.3715C13.8377 34.3179 14.0138 34.0549 13.9603 33.784C13.9067 33.5131 13.6436 33.337 13.3727 33.3905L13.5668 34.3715ZM15.4444 32.5318C15.215 32.6854 15.1535 32.996 15.3071 33.2254C15.4607 33.4549 15.7713 33.5164 16.0008 33.3628L15.4444 32.5318ZM17.8628 31.5008C18.0164 31.2713 17.9549 30.9607 17.7254 30.8071C17.496 30.6535 17.1854 30.715 17.0318 30.9444L17.8628 31.5008ZM17.8905 28.8727C17.837 29.1436 18.0131 29.4067 18.284 29.4603C18.5549 29.5138 18.8179 29.3377 18.8715 29.0668L17.8905 28.8727ZM19 26.7C19 26.4239 18.7761 26.2 18.5 26.2C18.2239 26.2 18 26.4239 18 26.7H19ZM18 24.6C18 24.8761 18.2239 25.1 18.5 25.1C18.7761 25.1 19 24.8761 19 24.6H18ZM19 22.5C19 22.2239 18.7761 22 18.5 22C18.2239 22 18 22.2239 18 22.5H19ZM18 20.4C18 20.6761 18.2239 20.9 18.5 20.9C18.7761 20.9 19 20.6761 19 20.4H18ZM19 18.3C19 18.0239 18.7761 17.8 18.5 17.8C18.2239 17.8 18 18.0239 18 18.3H19ZM18 16.2C18 16.4761 18.2239 16.7 18.5 16.7C18.7761 16.7 19 16.4761 19 16.2H18ZM19 14.1C19 13.8239 18.7761 13.6 18.5 13.6C18.2239 13.6 18 13.8239 18 14.1H19ZM18 12C18 12.2761 18.2239 12.5 18.5 12.5C18.7761 12.5 19 12.2761 19 12H18ZM19 9.9C19 9.62386 18.7761 9.4 18.5 9.4C18.2239 9.4 18 9.62386 18 9.9H19ZM18 7.8C18 8.07614 18.2239 8.3 18.5 8.3C18.7761 8.3 19 8.07614 19 7.8H18ZM19.1095 5.62727C19.163 5.35638 18.9869 5.09334 18.716 5.03974C18.4451 4.98615 18.1821 5.16231 18.1285 5.4332L19.1095 5.62727ZM19.1372 2.99924C18.9836 3.22871 19.0451 3.53926 19.2746 3.69289C19.504 3.84651 19.8146 3.78503 19.9682 3.55556L19.1372 2.99924ZM21.5556 1.9682C21.785 1.81458 21.8465 1.50402 21.6929 1.27456C21.5393 1.04509 21.2287 0.983609 20.9992 1.13723L21.5556 1.9682ZM23.4332 0.128469C23.1623 0.18206 22.9862 0.445105 23.0397 0.715997C23.0933 0.98689 23.3564 1.16305 23.6273 1.10946L23.4332 0.128469ZM25.8727 1.10946C26.1436 1.16305 26.4067 0.98689 26.4603 0.715997C26.5138 0.445105 26.3377 0.182059 26.0668 0.128469L25.8727 1.10946ZM28.5008 1.13723C28.2713 0.983608 27.9607 1.04509 27.8071 1.27456C27.6535 1.50402 27.715 1.81458 27.9444 1.9682L28.5008 1.13723ZM29.5318 3.55556C29.6854 3.78503 29.996 3.84651 30.2254 3.69289C30.4549 3.53926 30.5164 3.22871 30.3628 2.99924L29.5318 3.55556ZM31.3715 5.4332C31.3179 5.16231 31.0549 4.98615 30.784 5.03974C30.5131 5.09333 30.337 5.35638 30.3905 5.62727L31.3715 5.4332ZM30.5 7.7625C30.5 8.03864 30.7239 8.2625 31 8.2625C31.2761 8.2625 31.5 8.03864 31.5 7.7625H30.5ZM31.5 9.7875C31.5 9.51136 31.2761 9.2875 31 9.2875C30.7239 9.2875 30.5 9.51136 30.5 9.7875H31.5ZM30.5 11.8125C30.5 12.0886 30.7239 12.3125 31 12.3125C31.2761 12.3125 31.5 12.0886 31.5 11.8125H30.5ZM31.5 13.8375C31.5 13.5614 31.2761 13.3375 31 13.3375C30.7239 13.3375 30.5 13.5614 30.5 13.8375H31.5ZM30.5 15.8625C30.5 16.1386 30.7239 16.3625 31 16.3625C31.2761 16.3625 31.5 16.1386 31.5 15.8625H30.5ZM31.5 17.8875C31.5 17.6114 31.2761 17.3875 31 17.3875C30.7239 17.3875 30.5 17.6114 30.5 17.8875H31.5ZM30.5 19.9125C30.5 20.1886 30.7239 20.4125 31 20.4125C31.2761 20.4125 31.5 20.1886 31.5 19.9125H30.5ZM31.5 21.9375C31.5 21.6614 31.2761 21.4375 31 21.4375C30.7239 21.4375 30.5 21.6614 30.5 21.9375H31.5ZM30.5 23.9625C30.5 24.2386 30.7239 24.4625 31 24.4625C31.2761 24.4625 31.5 24.2386 31.5 23.9625H30.5ZM31.5 25.9875C31.5 25.7114 31.2761 25.4875 31 25.4875C30.7239 25.4875 30.5 25.7114 30.5 25.9875H31.5ZM5.5 2.5V3.55208H6.5V2.5H5.5ZM5.5 5.65625V7.76042H6.5V5.65625H5.5ZM5.5 9.86458V11.9688H6.5V9.86458H5.5ZM5.5 14.0729V16.1771H6.5V14.0729H5.5ZM5.5 18.2813V20.3854H6.5V18.2813H5.5ZM5.5 22.4896V24.5937H6.5V22.4896H5.5ZM5.5 26.6979V27.75H6.5V26.6979H5.5ZM5.5 27.75C5.5 28.2002 5.54414 28.6405 5.62847 29.0668L6.60946 28.8727C6.5377 28.51 6.5 28.1347 6.5 27.75H5.5ZM6.63723 31.5008C7.12989 32.2366 7.76336 32.8701 8.49924 33.3628L9.05556 32.5318C8.4283 32.1119 7.88814 31.5717 7.4682 30.9444L6.63723 31.5008ZM10.9332 34.3715C11.3595 34.4559 11.7998 34.5 12.25 34.5V33.5C11.8653 33.5 11.49 33.4623 11.1273 33.3905L10.9332 34.3715ZM12.25 34.5C12.7002 34.5 13.1405 34.4559 13.5668 34.3715L13.3727 33.3905C13.01 33.4623 12.6347 33.5 12.25 33.5V34.5ZM16.0008 33.3628C16.7366 32.8701 17.3701 32.2366 17.8628 31.5008L17.0318 30.9444C16.6119 31.5717 16.0717 32.1119 15.4444 32.5318L16.0008 33.3628ZM18.8715 29.0668C18.9559 28.6405 19 28.2002 19 27.75H18C18 28.1347 17.9623 28.51 17.8905 28.8727L18.8715 29.0668ZM19 27.75V26.7H18V27.75H19ZM19 24.6V22.5H18V24.6H19ZM19 20.4V18.3H18V20.4H19ZM19 16.2V14.1H18V16.2H19ZM19 12V9.9H18V12H19ZM19 7.8V6.75H18V7.8H19ZM19 6.75C19 6.36534 19.0377 5.98999 19.1095 5.62727L18.1285 5.4332C18.0441 5.85949 18 6.29984 18 6.75H19ZM19.9682 3.55556C20.3881 2.9283 20.9283 2.38814 21.5556 1.9682L20.9992 1.13723C20.2634 1.62989 19.6299 2.26336 19.1372 2.99924L19.9682 3.55556ZM23.6273 1.10946C23.99 1.0377 24.3653 1 24.75 1V0C24.2998 0 23.8595 0.0441364 23.4332 0.128469L23.6273 1.10946ZM24.75 1C25.1347 1 25.51 1.0377 25.8727 1.10946L26.0668 0.128469C25.6405 0.0441363 25.2002 0 24.75 0V1ZM27.9444 1.9682C28.5717 2.38814 29.1119 2.9283 29.5318 3.55556L30.3628 2.99924C29.8701 2.26336 29.2366 1.62989 28.5008 1.13723L27.9444 1.9682ZM30.3905 5.62727C30.4623 5.98999 30.5 6.36534 30.5 6.75H31.5C31.5 6.29984 31.4559 5.85949 31.3715 5.4332L30.3905 5.62727ZM30.5 6.75V7.7625H31.5V6.75H30.5ZM30.5 9.7875V11.8125H31.5V9.7875H30.5ZM30.5 13.8375V15.8625H31.5V13.8375H30.5ZM30.5 17.8875V19.9125H31.5V17.8875H30.5ZM30.5 21.9375V23.9625H31.5V21.9375H30.5ZM30.5 25.9875V27H31.5V25.9875H30.5Z" fill="#3C6AFF" fill-opacity="0.5"/>
<path d="M6 0L12 10H0L6 0Z" fill="#3C6AFF"/>
<path d="M31 33L24.9378 23.25L37.0622 23.25L31 33Z" fill="#3C6AFF"/>
</svg>
