<svg width="50" height="48" viewBox="0 0 50 48" fill="none" xmlns="http://www.w3.org/2000/svg">
<path d="M17 6.5L4.5 18V48H45.5V0L31 18L17 6.5Z" fill="url(#paint0_linear_488_13820)"/>
<path d="M5 24L18 13L31 24L45.5 6" stroke="#3C6AFF"/>
<circle cx="18" cy="12" r="4" fill="#3C6AFF" stroke="#3C6AFF" stroke-width="2"/>
<path d="M8 25C8 27.2091 6.20914 29 4 29C1.79086 29 0 27.2091 0 25C0 22.7909 1.79086 21 4 21C6.20914 21 8 22.7909 8 25Z" fill="white"/>
<path d="M36 25C36 27.2091 34.2091 29 32 29C29.7909 29 28 27.2091 28 25C28 22.7909 29.7909 21 32 21C34.2091 21 36 22.7909 36 25Z" fill="white"/>
<path d="M50 6C50 8.20914 48.2091 10 46 10C43.7909 10 42 8.20914 42 6C42 3.79086 43.7909 2 46 2C48.2091 2 50 3.79086 50 6Z" fill="white"/>
<path d="M7 25C7 26.6569 5.65685 28 4 28C2.34315 28 1 26.6569 1 25C1 23.3431 2.34315 22 4 22C5.65685 22 7 23.3431 7 25ZM35 25C35 26.6569 33.6569 28 32 28C30.3431 28 29 26.6569 29 25C29 23.3431 30.3431 22 32 22C33.6569 22 35 23.3431 35 25ZM49 6C49 7.65685 47.6569 9 46 9C44.3431 9 43 7.65685 43 6C43 4.34315 44.3431 3 46 3C47.6569 3 49 4.34315 49 6Z" stroke="#3C6AFF" stroke-opacity="0.5" stroke-width="2"/>
<defs>
<linearGradient id="paint0_linear_488_13820" x1="25" y1="0" x2="25" y2="54" gradientUnits="userSpaceOnUse">
<stop stop-color="#E0E7FF"/>
<stop offset="1" stop-color="white"/>
</linearGradient>
</defs>
</svg>
