<svg width="50" height="38" viewBox="0 0 50 38" fill="none" xmlns="http://www.w3.org/2000/svg">
<g clip-path="url(#clip0_488_13580)">
<path d="M41.0001 6.52L42.0001 6.52V6.52H41.0001ZM41 34.48L40 34.48V34.48H41ZM1.9812 6.52L0.981201 6.52L0.981201 6.52L1.9812 6.52ZM10 7C10 7.55228 10.4477 8 11 8C11.5523 8 12 7.55228 12 7H10ZM12 1C12 0.447715 11.5523 0 11 0C10.4477 0 10 0.447715 10 1H12ZM33 0.999991C33 0.447706 32.5523 -4.91583e-06 32 0C31.4477 4.9159e-06 31 0.447724 31 1.00001L33 0.999991ZM31.0001 7.00001C31.0001 7.55229 31.4478 8 32.0001 8C32.5523 8 33.0001 7.55228 33.0001 6.99999L31.0001 7.00001ZM4.50005 5H38.4812V3H4.50005V5ZM38.4812 5C39.3196 5 40.0001 5.6801 40.0001 6.52H42.0001C42.0001 4.57639 40.425 3 38.4812 3V5ZM40.0001 6.52L40 34.48L42 34.48L42.0001 6.52L40.0001 6.52ZM40 34.48C40 35.3199 39.3196 36 38.4812 36V38C40.425 38 42 36.4236 42 34.48H40ZM38.4812 36H4.98129V38H38.4812V36ZM2.98129 34L2.9812 6.52L0.981201 6.52L0.981293 34L2.98129 34ZM2.9812 6.52C2.9812 5.6801 3.66164 5 4.50005 5V3C2.55622 3 0.981201 4.57639 0.981201 6.52H2.9812ZM1.98122 12H41V9.99998H1.98122V12ZM12 7V1H10V7H12ZM31 1.00001L31.0001 7.00001L33.0001 6.99999L33 0.999991L31 1.00001ZM4.98129 36C3.87673 36 2.9813 35.1046 2.98129 34L0.981293 34C0.9813 36.2091 2.77216 38 4.98129 38V36Z" fill="#3C6AFF" fill-opacity="0.5"/>
<path d="M13.62 17.48L10.09 21.02L8 17.93M19.88 17H23.12C23.606 17 24 17.394 24 17.88V21.12C24 21.606 23.606 22 23.12 22H19.88C19.394 22 19 21.606 19 21.12V17.88C19 17.394 19.394 17 19.88 17ZM8.88 26H12.12C12.606 26 13 26.394 13 26.88V30.12C13 30.606 12.606 31 12.12 31H8.88C8.39399 31 8 30.606 8 30.12V26.88C8 26.394 8.39399 26 8.88 26ZM19.88 26H23.12C23.606 26 24 26.394 24 26.88V30.12C24 30.606 23.606 31 23.12 31H19.88C19.394 31 19 30.606 19 30.12V26.88C19 26.394 19.394 26 19.88 26Z" stroke="#3C6AFF" stroke-opacity="0.5" stroke-width="2" stroke-miterlimit="10" stroke-linecap="round"/>
<circle cx="39.5" cy="23.5" r="10.5" fill="#3C6AFF"/>
<path d="M35.76 29.385L33.27 19.095H35.415L37.05 26.385H37.11L39.06 19.095H40.815L42.735 26.385H42.795L44.46 19.095H46.35L43.875 29.385H41.715L39.885 22.215H39.84L37.905 29.385H35.76Z" fill="white"/>
</g>
<defs>
<clipPath id="clip0_488_13580">
<rect width="50" height="38" fill="white"/>
</clipPath>
</defs>
</svg>
