<svg width="41" height="45" viewBox="0 0 41 45" fill="none" xmlns="http://www.w3.org/2000/svg">
<path d="M18.0803 25.0682L20.0213 16.528L21.9623 25.0682H18.0803Z" fill="#3C6AFF"/>
<path d="M21.6365 26.2328L15.8795 32.3222L18.2747 24.2918L21.9625 25.0682C21.9625 25.0682 21.9625 25.8446 21.6365 26.2328Z" fill="#3C6AFF"/>
<path d="M23 6.23098V3.88941C23 2.3062 21.574 1 20 1C18.426 1 17 2.3062 17 3.88941V6.23098M39 24.8889C39 35.4437 30.4934 44 20 44C9.50659 44 1 35.4437 1 24.8889C1 14.3341 9.50659 6 20 6C30.4934 6 39 14.3341 39 24.8889Z" stroke="#3C6AFF" stroke-opacity="0.5" stroke-width="2" stroke-linecap="round"/>
<path d="M6.62497 25L11 25M29 25H33.3796M20 11.5117L20 15M20 38L20 34.5M29.4618 15.4295C34.6861 20.6539 34.6861 29.1242 29.4618 34.3486C24.2375 39.5729 15.7671 39.5729 10.5428 34.3486C5.31842 29.1242 5.31842 20.6539 10.5428 15.4295C15.7671 10.2052 24.2375 10.2052 29.4618 15.4295Z" stroke="#3C6AFF" stroke-opacity="0.5" stroke-width="2" stroke-linecap="round"/>
</svg>
