<svg width="24" height="24" viewBox="0 0 24 24" fill="none" xmlns="http://www.w3.org/2000/svg">
<path d="M11 0.0132609C5.94668 0.495338 2 4.59193 2 9.57422C2 10.8179 2.24593 12.0064 2.6936 13.0973H2.66667C2.66667 13.0973 2.79511 13.397 3.08213 13.9261C3.14067 14.0367 3.20137 14.146 3.26417 14.254C4.3351 16.1402 6.95605 20.0635 12 23.9868C17.0439 20.0635 19.6649 16.1402 20.7358 14.254C20.7986 14.146 20.8593 14.0367 20.9179 13.9261C21.2049 13.397 21.3333 13.0973 21.3333 13.0973H21.3064C21.7541 12.0064 22 10.8179 22 9.57422C22 4.59193 18.0533 0.495338 13 0.0132609V6.51805C14.3524 6.92617 15.3333 8.14012 15.3333 9.57422C15.3333 11.3431 13.8409 12.777 12 12.777C10.1591 12.777 8.66667 11.3431 8.66667 9.57422C8.66667 8.14012 9.64763 6.92617 11 6.51805V0.0132609Z" fill="#3C6AFF"/>
</svg>
