<svg width="10" height="11" viewBox="0 0 10 11" fill="none" xmlns="http://www.w3.org/2000/svg">
<mask id="mask0_322_7602" style="mask-type:alpha" maskUnits="userSpaceOnUse" x="0" y="0" width="10" height="11">
<path d="M3.94574 3.98478L5 3.41292L6.05425 3.98478L7 4.5121L7 6.4879L6.05429 7.0152L5 7.58708L3.94572 7.0152L3 6.4879L3 4.5121L3.94574 3.98478Z" stroke="#85B3F7" stroke-width="6"/>
</mask>
<g mask="url(#mask0_322_7602)">
<path d="M3.94574 3.98478L5 3.41292L6.05427 3.98479L7 4.5121L7 6.4879L6.05428 7.0152L5 7.58708L3.94576 7.01523L3 6.4879L3 4.5121L3.94574 3.98478Z" stroke="#85B3F7" stroke-width="6"/>
<mask id="path-3-inside-1_322_7602" fill="white">
<path d="M10 2.75L10 8.25L7.5 9.64393L5 11L5 5.85474L10 2.75Z"/>
</mask>
<path d="M10 2.75L16 2.75L16 -8.03831L6.83487 -2.34725L10 2.75ZM10 8.25L12.9219 13.4904L16 11.7742L16 8.25L10 8.25ZM7.5 9.64393L10.3608 14.918L10.3915 14.9014L10.4219 14.8844L7.5 9.64393ZM5 11L-0.999999 11L-0.999998 21.0804L7.8608 16.2741L5 11ZM5 5.85474L1.83488 0.757484L-1 2.51779L-0.999999 5.85474L5 5.85474ZM4 2.75L4 8.25L16 8.25L16 2.75L4 2.75ZM7.07807 3.00955L4.57807 4.40348L10.4219 14.8844L12.9219 13.4904L7.07807 3.00955ZM4.6392 4.36986L2.1392 5.72593L7.8608 16.2741L10.3608 14.918L4.6392 4.36986ZM11 11L11 5.85474L-0.999999 5.85474L-0.999999 11L11 11ZM8.16513 10.952L13.1651 7.84725L6.83487 -2.34725L1.83488 0.757484L8.16513 10.952Z" fill="#558ADA" mask="url(#path-3-inside-1_322_7602)"/>
<path d="M1.5 5.28691L6.90376 8.25897L6.77714 8.32957L5 9.29354L3.22288 8.32958L1.5 7.36895L1.5 5.28691Z" stroke="#2A58A7" stroke-width="3"/>
</g>
</svg>
