<svg width="53" height="44" viewBox="0 0 53 44" fill="none" xmlns="http://www.w3.org/2000/svg">
<g filter="url(#filter0_d_3890_6902)">
<rect x="4" width="45" height="36" rx="10" fill="white"/>
<rect x="4.5" y="0.5" width="44" height="35" rx="9.5" stroke="#DADADA"/>
</g>
<g clip-path="url(#clip0_3890_6902)">
<path d="M19.3325 13.834H32.6659" stroke="#3E3A39" stroke-width="1.3" stroke-linecap="round" stroke-linejoin="round"/>
<path d="M24.3325 17.166V22.166" stroke="#3E3A39" stroke-width="1.3" stroke-linecap="round" stroke-linejoin="round"/>
<path d="M27.6675 17.166V22.166" stroke="#3E3A39" stroke-width="1.3" stroke-linecap="round" stroke-linejoin="round"/>
<path d="M20.1675 13.834L21.0008 23.834C21.0008 24.276 21.1764 24.6999 21.489 25.0125C21.8015 25.3251 22.2255 25.5007 22.6675 25.5007H29.3341C29.7762 25.5007 30.2001 25.3251 30.5127 25.0125C30.8252 24.6999 31.0008 24.276 31.0008 23.834L31.8341 13.834" stroke="#3E3A39" stroke-width="1.3" stroke-linecap="round" stroke-linejoin="round"/>
<path d="M23.5 13.8333V11.3333C23.5 11.1123 23.5878 10.9004 23.7441 10.7441C23.9004 10.5878 24.1123 10.5 24.3333 10.5H27.6667C27.8877 10.5 28.0996 10.5878 28.2559 10.7441C28.4122 10.9004 28.5 11.1123 28.5 11.3333V13.8333" stroke="#3E3A39" stroke-width="1.3" stroke-linecap="round" stroke-linejoin="round"/>
</g>
<defs>
<filter id="filter0_d_3890_6902" x="0" y="0" width="53" height="44" filterUnits="userSpaceOnUse" color-interpolation-filters="sRGB">
<feFlood flood-opacity="0" result="BackgroundImageFix"/>
<feColorMatrix in="SourceAlpha" type="matrix" values="0 0 0 0 0 0 0 0 0 0 0 0 0 0 0 0 0 0 127 0" result="hardAlpha"/>
<feOffset dy="4"/>
<feGaussianBlur stdDeviation="2"/>
<feComposite in2="hardAlpha" operator="out"/>
<feColorMatrix type="matrix" values="0 0 0 0 0 0 0 0 0 0 0 0 0 0 0 0 0 0 0.25 0"/>
<feBlend mode="normal" in2="BackgroundImageFix" result="effect1_dropShadow_3890_6902"/>
<feBlend mode="normal" in="SourceGraphic" in2="effect1_dropShadow_3890_6902" result="shape"/>
</filter>
<clipPath id="clip0_3890_6902">
<rect width="20" height="20" fill="white" transform="translate(16 8)"/>
</clipPath>
</defs>
</svg>
